<svg xmlns="http://www.w3.org/2000/svg" width="100" height="100"><path d="M49.863 0C22.324 0 0 22.324 0 49.863s22.324 49.863 49.863 49.863 49.863-22.324 49.863-49.863S77.401 0 49.863 0zm-.756 9.903c3.572 0 6.464 2.891 6.464 6.44a6.46 6.46 0 0 1-6.464 6.463c-3.547 0-6.438-2.892-6.44-6.463a6.45 6.45 0 0 1 6.44-6.44zM77.05 30.728l-19.184 2.424.008 19.204 9.294 31.025a3.615 3.615 0 0 1-2.625 4.403c-1.937.484-3.918-.583-4.406-2.542L50.616 57h-2.932l-8.759 28.828c-.733 1.881-2.828 2.746-4.707 2.013-1.861-.726-2.997-2.844-2.263-4.725L40 52.67V33.152l-17.674-2.405c-1.814-.146-3.046-1.743-2.898-3.557.133-1.828 1.783-3.185 3.596-3.039L44.497 26h9.417l22.866-1.885a3.283 3.283 0 0 1 3.418 3.171c.073 1.818-1.33 3.367-3.148 3.442z" fill="#FFF"/></svg>