<svg xmlns="http://www.w3.org/2000/svg" width="100" height="100"><switch><g><path fill="#263D66" d="M49.863 0C22.324 0 0 22.324 0 49.863c0 27.54 22.324 49.864 49.863 49.864 27.54 0 49.864-22.324 49.864-49.864C99.727 22.324 77.4 0 49.863 0zm-.756 9.903c3.573 0 6.463 2.891 6.463 6.44a6.46 6.46 0 0 1-6.463 6.463c-3.547 0-6.438-2.892-6.44-6.463a6.45 6.45 0 0 1 6.44-6.44zM77.05 30.728l-19.184 2.424.008 19.204 9.294 31.025a3.616 3.616 0 0 1-2.625 4.403c-1.938.483-3.918-.583-4.406-2.542L50.616 57h-2.932l-8.759 28.828c-.733 1.881-2.828 2.746-4.707 2.013-1.861-.726-2.997-2.844-2.263-4.725L40 52.67V33.152l-17.674-2.405c-1.814-.146-3.046-1.743-2.898-3.557.133-1.828 1.783-3.185 3.596-3.039L44.497 26h9.417l22.865-1.885a3.284 3.284 0 0 1 3.419 3.171c.073 1.818-1.33 3.367-3.148 3.442z"/></g></switch></svg>